# xmcd CD database file
#
# Track frame offsets:
#	150
#	25157
#	42240
#	66640
#	91527
#	110040
#	140712
#	164647
#	179172
#	198475
#	221175
#
# Disc length: 3256 seconds
#
# Revision: 0
# Processed by: cddbd v1.5.2PL0 Copyright (c) Steve Scherf et al.
# Submitted via: CDex 1.51
#
DISCID=b00cb60b
DTITLE=tricycle - emerge and see
DYEAR=2003
DGENRE=Jazz
TTITLE0=For Joy (in three parts)
TTITLE1=Murmur
TTITLE2=emerge and see
TTITLE3=Capetown
TTITLE4=Bedouin Blues
TTITLE5=Sing it Right (you won't have to tomorrow)
TTITLE6=the Roeds We Know
TTITLE7=Corrib theme
TTITLE8=the Unseen
TTITLE9=Four Strikes
TTITLE10=You Still Hear
EXTD=YEAR: 2003
EXTT0=
EXTT1=
EXTT2=
EXTT3=
EXTT4=
EXTT5=
EXTT6=
EXTT7=
EXTT8=
EXTT9=
EXTT10=
PLAYORDER=
